{"title":"Lone Wolf McQuade 1983 DVD9rip English Klam","uid":5869093,"size":1161691474,"categoryP":"video","categoryS":"movies","magnet":"?xt=urn:btih:4f1eed63c31bd7321be7691f469f8c9839e66e40&amp;dn=Lone+Wolf+McQuade+1983+DVD9rip+English+Klam&amp;tr=udp%3A%2F%2Ftracker.openbittorrent.com%3A80&amp;tr=udp%3A%2F%2Fopen.demonii.com%3A1337&amp;tr=udp%3A%2F%2Ftracker.coppersurfer.tk%3A6969&amp;tr=udp%3A%2F%2Fexodus.desync.com%3A6969","seeders":1,"leechers":0,"uploader":"Klambake","files":-1,"time":1286391591,"description":"With: Chuck Norris, David Carradine en Barbara Carrera\n\nThe archetypical renegade Texas Ranger wages war against a drug kingpin with automatic weapons, his wits and martial arts after a gun battle leaves his partner dead. All of this inevitably culminates a martial arts showdown between the drug lord and the ranger, and involving the woman they both love.\n\nGeneral:\n\nComplete name                    : Klambake\\Lone Wolf\\McQuade.avi\nFormat                           : AVI\nFormat/Info                      : Audio Video Interleave\nFile size                        : 1.08 GiB\nDuration                         : 1h 42mn\nOverall bit rate                 : 1 509 Kbps\n\nVideo:\n\nFormat                           : MPEG-4 Visual\nFormat profile                   : Simple@L3\nFormat settings, BVOP            : No\nFormat settings, QPel            : No\nFormat settings, GMC             : No warppoints\nFormat settings, Matrix          : Default (H.263)\nCodec ID                         : XVID\nCodec ID/Hint                    : XviD\nDuration                         : 1h 42mn\nBit rate                         : 1 336 Kbps\nWidth                            : 720 pixels\nHeight                           : 576 pixels\nDisplay aspect ratio             : 5:4\nFrame rate                       : 25.000 fps\nStandard                         : PAL\nColor space                      : YUV\nChroma subsampling               : 4:2:0\nBit depth                        : 8 bits\nScan type                        : Progressive\nBits/(Pixel*Frame)               : 0.129\nStream size                      : 980 MiB (89%)\nWriting library                  : XviD 1.1.2 (UTC 2006-11-01)\n\nAudio:\n\nFormat                           : MPEG Audio\nFormat version                   : Version 1\nFormat profile                   : Layer 3\nMode                             : Joint stereo\nMode extension                   : MS Stereo\nCodec ID                         : 55\nCodec ID/Hint                    : MP3\nDuration                         : 1h 42mn\nBit rate mode                    : Constant\nBit rate                         : 160 Kbps\nChannel(s)                       : 2 channels\nSampling rate                    : 48.0 KHz\nStream size                      : 117 MiB (11%)\nAlignment                        : Split accross interleaves\nInterleave, duration             : 24 ms (0.60 video frame)\nInterleave, preload duration     : 837 ms","torrent":{"xt":"urn:btih:4f1eed63c31bd7321be7691f469f8c9839e66e40","amp;dn":"Lone+Wolf+McQuade+1983+DVD9rip+English+Klam","amp;tr":["udp%3A%2F%2Ftracker.openbittorrent.com%3A80","udp%3A%2F%2Fopen.demonii.com%3A1337","udp%3A%2F%2Ftracker.coppersurfer.tk%3A6969","udp%3A%2F%2Fexodus.desync.com%3A6969"],"infoHash":"4f1eed63c31bd7321be7691f469f8c9839e66e40","infoHashBuffer":{"type":"Buffer","data":[79,30,237,99,195,27,215,50,27,231,105,31,70,159,140,152,57,230,110,64]},"announce":[],"urlList":[]}}